<?xml version="1.0" encoding="UTF-8"?>
<svg id="Layer_1" data-name="Layer 1" xmlns="http://www.w3.org/2000/svg" viewBox="0 0 406 147">
  <defs>
    <style>
      .cls-1 {
        fill: white;
      }
    </style>
  </defs>
  <path class="cls-1" d="M174.33,70.73c-2.94-.59-4.14-.91-4.14-1.73,0-.76,.67-1.57,2.54-1.57,1.52,0,2.81,.66,3.45,1.77,.15,.25,.48,.34,.74,.19l3.77-2.08c.14-.08,.24-.21,.28-.36,.04-.15,0-.31-.07-.44-1.7-2.56-4.36-3.8-8.12-3.8h-.2c-2.59,0-4.87,.83-6.4,2.34-1.16,1.14-1.8,2.6-1.8,4.11,0,4.42,3.73,5.68,7.37,6.33l.31,.06c2.21,.42,3.96,.75,3.96,1.72,0,.86-.84,1.73-2.7,1.73s-3.22-.78-3.97-2.24c-.07-.14-.2-.25-.35-.3-.14-.04-.29-.03-.42,.04l-4.15,2.29c-.13,.07-.23,.2-.27,.34-.04,.14-.02,.29,.05,.42,1.66,2.97,4.56,4.41,8.87,4.41h.18c3.36,0,5.39-1.3,6.5-2.39,1.26-1.24,2.01-2.91,2.01-4.47,0-4.28-3.56-5.59-7.41-6.37"/>
  <path class="cls-1" d="M193.17,70.73c-2.94-.59-4.14-.91-4.14-1.73,0-.76,.67-1.57,2.54-1.57,1.52,0,2.81,.66,3.45,1.77,.15,.25,.48,.34,.74,.19l3.77-2.08c.14-.08,.24-.21,.28-.36,.04-.15,0-.31-.07-.44-1.7-2.56-4.36-3.8-8.12-3.8h-.2c-2.59,0-4.87,.83-6.4,2.34-1.16,1.14-1.8,2.6-1.8,4.11,0,4.42,3.73,5.68,7.37,6.33l.31,.06c2.21,.42,3.96,.75,3.96,1.72,0,.86-.84,1.73-2.7,1.73s-3.22-.78-3.97-2.24c-.07-.14-.2-.25-.35-.3-.14-.04-.29-.03-.43,.04l-4.15,2.29c-.13,.07-.23,.2-.27,.34-.04,.14-.02,.29,.05,.42,1.66,2.97,4.56,4.41,8.87,4.41h.18c3.36,0,5.39-1.3,6.5-2.39,1.26-1.24,2.01-2.91,2.01-4.47,0-4.28-3.56-5.59-7.41-6.37"/>
  <path class="cls-1" d="M268.9,74.42v-5.97c0-.23,.19-.42,.42-.42h3.42c.29,0,.53-.24,.53-.53v-3.87c0-.29-.24-.53-.53-.53h-3.42c-.23,0-.42-.19-.42-.42v-6.17c0-.4-.43-.65-.78-.46l-4.77,2.62c-.17,.09-.27,.27-.27,.46v3.54c0,.23-.19,.42-.42,.42h-2.11c-.29,0-.53,.24-.53,.53v3.87c0,.29,.24,.53,.53,.53h2.11c.23,0,.42,.19,.42,.42v7.28c0,4.29,3.48,7.73,7.78,7.74,.72,0,1.41,.06,2.07-.08,.2-.04,.33-.23,.33-.44v-4.78c0-.19-.18-.32-.36-.27-.28,.09-.58,.14-.89,.14-1.44,0-2.65-.99-3-2.32,0,0-.12-.54-.12-1.3"/>
  <path class="cls-1" d="M281.51,73.48v-9.86c0-.29-.24-.53-.53-.53h-4.82c-.29,0-.53,.24-.53,.53v10.42c0,2.92,.86,5.4,2.47,7.17,1.61,1.76,3.87,2.69,6.52,2.69,2.17,0,4.09-.51,5.87-1.92l.11-.08v1.06c0,.29,.24,.53,.53,.53h4.82c.29,0,.53-.24,.53-.53v-19.34c0-.29-.24-.53-.53-.53h-4.82c-.29,0-.53,.24-.53,.53v9.77c0,3.26-1.72,5.21-4.59,5.21s-4.51-1.86-4.51-5.11"/>
  <path class="cls-1" d="M242.66,73.48v-9.86c0-.29-.24-.53-.53-.53h-4.82c-.29,0-.53,.24-.53,.53v10.42c0,2.92,.86,5.4,2.47,7.17,1.61,1.76,3.87,2.69,6.52,2.69,2.17,0,4.09-.51,5.87-1.92l.11-.08v1.17c0,.23,.19,.42,.42,.42h5.03c.23,0,.42-.19,.42-.42v-19.44c0-.29-.24-.53-.53-.53h-4.82c-.29,0-.53,.24-.53,.53v9.77c0,3.26-1.72,5.21-4.59,5.21s-4.51-1.86-4.51-5.11"/>
  <path class="cls-1" d="M329.51,51.89h-4.92c-.29,0-.53,.24-.53,.53v30.64c0,.23,.19,.42,.42,.42h5.03c.23,0,.42-.19,.42-.42v-30.75c0-.23-.19-.42-.42-.42"/>
  <path class="cls-1" d="M150.71,67.71c3.04,0,5.16,2.26,5.16,5.5s-2.17,5.67-5.16,5.67-5.24-2.39-5.24-5.67,2.16-5.5,5.24-5.5m-11.02,5.5c0,6.53,4.38,10.87,10.86,10.69,1.94-.05,3.79-.81,5.31-2.01v1.04c0,.29,.24,.53,.53,.53h4.82c.29,0,.53-.24,.53-.53v-19.31c0-.29-.24-.53-.53-.53h-4.82c-.29,0-.53,.24-.53,.53v1.06l-.1-.08c-1.63-1.26-3.51-1.89-5.59-1.89-6.27,0-10.49,4.22-10.49,10.51"/>
  <path class="cls-1" d="M309.9,67.71c3.04,0,5.16,2.26,5.16,5.5s-2.17,5.67-5.16,5.67-5.24-2.39-5.24-5.67,2.16-5.5,5.24-5.5m-11.02,5.5c0,6.53,4.38,10.87,10.86,10.69,1.94-.05,3.79-.81,5.31-2.01v1.15c0,.23,.19,.42,.42,.42h5.03c.23,0,.42-.19,.42-.42v-19.53c0-.23-.19-.42-.42-.42h-5.03c-.23,0-.42,.19-.42,.42v1.17l-.1-.08c-1.63-1.26-3.51-1.89-5.59-1.89-6.27,0-10.49,4.22-10.49,10.51"/>
  <path class="cls-1" d="M132.54,52.16l-10.59,15.66-10.59-15.66c-.11-.17-.3-.27-.5-.27h-3.65c-.34,0-.61,.27-.61,.61v30.37c0,.34,.27,.61,.61,.61h4.66c.34,0,.61-.27,.61-.61v-18.57l8.97,13.27c.24,.36,.76,.36,1.01,0l8.98-13.27v18.57c0,.34,.27,.61,.61,.61h4.66c.34,0,.61-.27,.61-.61v-30.37c0-.34-.27-.61-.61-.61h-3.65c-.2,0-.39,.1-.5,.27"/>
  <path class="cls-1" d="M228.84,52.16l-10.59,15.66-10.59-15.66c-.11-.17-.3-.27-.5-.27h-3.65c-.34,0-.61,.27-.61,.61v30.37c0,.34,.27,.61,.61,.61h4.66c.34,0,.61-.27,.61-.61v-18.57l8.97,13.27c.24,.36,.76,.36,1.01,0l8.98-13.27v18.57c0,.34,.27,.61,.61,.61h4.66c.34,0,.61-.27,.61-.61v-30.37c0-.34-.27-.61-.61-.61h-3.65c-.2,0-.39,.1-.5,.27"/>
  <path class="cls-1" d="M99.04,79.19c0-2.64-2.14-4.78-4.78-4.78s-4.78,2.14-4.78,4.78,2.14,4.78,4.78,4.78,4.78-2.14,4.78-4.78"/>
  <path class="cls-1" d="M84.1,79.19c0-2.64-2.14-4.78-4.78-4.78s-4.78,2.14-4.78,4.78,2.14,4.78,4.78,4.78,4.78-2.14,4.78-4.78"/>
  <path class="cls-1" d="M69.16,79.19c0-2.64-2.14-4.78-4.78-4.78s-4.78,2.14-4.78,4.78,2.14,4.78,4.78,4.78,4.78-2.14,4.78-4.78"/>
  <path class="cls-1" d="M91.58,67.48c0-2.64-2.14-4.78-4.78-4.78s-4.78,2.14-4.78,4.78,2.14,4.78,4.78,4.78,4.78-2.14,4.78-4.78"/>
  <path class="cls-1" d="M76.65,67.48c0-2.64-2.14-4.78-4.78-4.78s-4.78,2.14-4.78,4.78,2.14,4.78,4.78,4.78,4.78-2.14,4.78-4.78"/>
</svg>